Coordinates
version=1
nRows=14
nColumns=33
inDegrees=yes

Units are S.I. units (second, meters, Newtons, ...)
Angles are in degrees.

endheader
time	ground_thorax_rot_x	ground_thorax_rot_y	ground_thorax_rot_z	ground_thorax_tx	ground_thorax_ty	ground_thorax_tz	clav_prot_r	clav_elev_r	scapula_abduction_r	scapula_elevation_r	scapula_upward_rot_r	scapula_winging_r	shoulder_elv_r	plane_of_elev_r	axial_rot_r	elbow_flexion_r	pro_sup_r	wrist_flex_r	wrist_dev_r	clav_prot_l	clav_elev_l	scapula_abduction_l	scapula_elevation_l	scapula_upward_rot_l	scapula_winging_l	shoulder_elv_l	plane_of_elev_l	axial_rot_l	elbow_flexion_l	pro_sup_l	wrist_flex_l	wrist_dev_l
      3.99000000	    -37.34571598	     -5.55938915	      6.84002538	    -81.63773425	    789.10764619	     10.56946821	      5.27328404	    -45.00000000	     45.00000000	    -45.00000000	    -19.17522273	  -1166.12543042	  -1193.86095568	    145.55976285	    179.99999979	   1085.43323144	     52.56684540	     21.70294558	     14.26071248	     16.77747928	     37.02551886	    -45.00000000	    -35.44605301	    -22.25504780	   -641.34722538	  -2815.79200228	     24.75122575	    -34.28356787	    368.39439450	     23.88593057	      8.12666120	    -16.65540544
      4.00000000	    -37.39790030	     -5.36577501	      6.56244887	    -81.89689931	    789.08341542	     10.43215362	      4.99107665	    -45.00000000	     45.00000000	    -45.00000000	    -19.27321618	  -1166.07355308	  -1193.78938304	    145.29978540	    179.99999979	   1085.48046914	     52.67228957	     21.97402592	     14.39242505	     16.61702620	     37.60265101	    -45.00000000	    -35.54815542	    -21.95800106	   -641.45168397	  -2815.84725674	     24.78633349	    -33.40532089	    368.29904137	     23.78079523	      8.11874977	    -16.66335607
      4.01000000	    -37.39159095	     -5.35134816	      6.64442109	    -82.20322888	    789.04939927	     10.28449683	      5.09230922	    -45.00000000	     45.00000000	    -45.00000000	    -18.96598182	  -1166.04524470	  -1193.97971452	    145.60377328	    179.99999979	   1085.49690553	     52.73445647	     21.72716956	     14.21251801	     16.80917570	     37.26364037	    -45.00000000	    -35.56664806	    -22.31151601	   -641.49724687	  -2815.68999233	     24.91347616	    -33.37965357	    368.42006811	     23.78091371	      8.28174276	    -16.73123532
      4.02000000	    -37.34952635	     -5.35436429	      6.62273925	    -82.55036211	    789.01103588	     10.12938912	      5.02651811	    -45.00000000	     45.00000000	    -45.00000000	    -19.33703282	  -1166.11637080	  -1193.86082525	    145.30406414	    179.99999979	   1085.55742672	     52.80452039	     22.11417511	     14.44405319	     16.71902274	     37.50614209	    -45.00000000	    -35.56350434	    -22.19105213	   -641.47835868	  -2815.77857230	     24.85553930	    -33.08424427	    368.36912255	     23.72853059	      8.06751218	    -16.67020317
      4.03000000	    -37.35661933	     -5.40281664	      6.63301484	    -82.95033748	    788.97000456	      9.96257159	      5.09664771	    -45.00000000	     45.00000000	    -45.00000000	    -19.18369556	  -1166.07772118	  -1193.98078215	    145.58656147	    179.99999979	   1085.57377659	     52.84661991	     21.74562597	     14.16803421	     16.81019399	     37.35338064	    -45.00000000	    -35.59912576	    -22.45751645	   -641.47799001	  -2815.67700748	     24.96220135	    -33.20728334	    368.45603148	     23.74664892	      8.31108745	    -16.76334395
      4.04000000	    -37.32032625	     -5.33569607	      6.66466342	    -83.37477681	    788.93272201	      9.79747065	      5.07649633	    -45.00000000	     45.00000000	    -45.00000000	    -19.50804714	  -1166.20649304	  -1193.88758706	    145.25197960	    179.99999979	   1085.66344594	     52.89886431	     22.34068874	     14.56206062	     16.77203077	     37.50534339	    -45.00000000	    -35.57449599	    -22.28499016	   -641.38851668	  -2815.75904269	     24.88566559	    -32.95298679	    368.46202652	     23.67464991	      7.94342245	    -16.66177206
      4.05000000	    -37.37783193	     -5.32966464	      6.70358931	    -83.85658182	    788.89876036	      9.62286375	      5.10330832	    -45.00000000	     45.00000000	    -45.00000000	    -19.36495233	  -1166.06171549	  -1194.03512139	    145.61268008	    179.99999979	   1085.74445043	     52.91748667	     21.61517710	     13.97483944	     16.80790572	     37.40531718	    -45.00000000	    -35.70350408	    -22.62351861	   -641.41030996	  -2815.62676293	     25.00631116	    -33.18520065	    368.62686699	     23.70824561	      8.40304024	    -16.85148543
      4.06000000	    -37.37319868	     -5.28655014	      6.75671350	    -84.37662151	    788.87295132	      9.44847736	      5.13636956	    -45.00000000	     45.00000000	    -45.00000000	    -19.74267398	  -1166.23305580	  -1193.84345368	    145.14577812	    179.99999979	   1085.72304813	     52.99119026	     22.56033519	     14.70189613	     16.82856095	     37.55089435	    -45.00000000	    -35.61992754	    -22.42938386	   -641.32974449	  -2815.75669241	     24.89406022	    -32.86641614	    368.44226267	     23.62059511	      7.84647057	    -16.62754951
      4.07000000	    -37.37260341	     -5.29625865	      6.74134810	    -84.94645523	    788.85568115	      9.27560667	      5.12792366	    -45.00000000	     45.00000000	    -45.00000000	    -19.65398901	  -1166.08456823	  -1194.01422412	    145.57843604	    179.99999979	   1085.89932619	     52.98585437	     21.56949082	     13.85681062	     16.81870398	     37.46827459	    -45.00000000	    -35.77665084	    -22.78204062	   -641.31131577	  -2815.53051623	     25.03880802	    -33.12821796	    368.76184678	     23.65243193	      8.42112724	    -16.90314371
      4.08000000	    -37.32616464	     -5.34177155	      6.86300333	    -85.57412751	    788.85164610	      9.10254047	      5.21090097	    -45.00000000	     45.00000000	    -45.00000000	    -20.00612424	  -1166.27408951	  -1193.83316079	    145.35642529	    179.99999979	   1085.98186491	     53.04257551	     22.17392201	     14.26872824	     16.90307430	     37.58842874	    -45.00000000	    -35.87175330	    -22.83900992	   -641.31000594	  -2815.66630765	     24.94726263	    -32.90700621	    368.82484275	     23.55906029	      8.05780645	    -16.81049602
      4.09000000	    -37.39882784	     -5.21351521	      6.75096337	    -86.25576443	    788.86701956	      8.92841907	      5.21678652	    -45.00000000	     45.00000000	    -45.00000000	    -20.14176509	  -1166.29813912	  -1193.78444803	    145.18957656	    179.99999979	   1086.04854468	     53.09013674	     22.30818031	     14.38284612	     16.91560572	     37.69912239	    -45.00000000	    -35.94305390	    -22.82931689	   -641.18868541	  -2815.72110208	     25.10369191	    -32.78442783	    368.80416998	     23.51660744	      8.01230320	    -16.77367323
      4.10000000	    -37.44680723	     -5.24017593	      6.78885790	    -86.99426104	    788.90996265	      8.74830846	      5.22154074	    -45.00000000	     45.00000000	    -45.00000000	    -20.30311421	  -1166.29362265	  -1193.81266939	    145.33363069	    179.99999979	   1086.17767552	     53.10164396	     22.26019874	     14.23935671	     16.91845553	     37.79169081	    -45.00000000	    -36.06346884	    -22.94503835	   -641.23358514	  -2815.58094070	     24.97616056	    -32.74556471	    368.98110162	     23.47642780	      8.03645967	    -16.85663463
      4.11000000	    -37.44771829	     -5.18915094	      6.74570455	    -87.79272904	    788.98551198	      8.56328063	      5.28684703	    -45.00000000	     45.00000000	    -45.00000000	    -20.54982161	  -1166.39613102	  -1193.68117746	    145.10536736	    179.99999979	   1086.29603726	     53.14226913	     22.42383738	     14.36641521	     17.00986360	     37.87984565	    -45.00000000	    -36.17823941	    -23.05672418	   -641.08560368	  -2815.71343528	     25.13745094	    -32.62026038	    368.99902696	     23.42563483	      7.93935762	    -16.80292999
      4.12000000	    -37.56465332	     -5.15419793	      6.80573498	    -88.65348741	    789.10010828	      8.37401116	      5.29189949	    -45.00000000	     45.00000000	    -45.00000000	    -20.69999731	  -1166.34951615	  -1193.67816803	    145.19302626	    179.99999979	   1086.40591400	     53.15143589	     22.35692717	     14.21441957	     16.98771080	     38.00709413	    -45.00000000	    -36.34474749	    -23.21817461	   -641.14776026	  -2815.51236814	     25.03396066	    -32.58748663	    369.14112486	     23.38529783	      7.99416220	    -16.89029468
